<?xml version="1.0" encoding="UTF-8"?>
<svg width="512pt" height="512pt" version="1.1" viewBox="0 0 512 512" xmlns="http://www.w3.org/2000/svg">
 <g>
  <path d="m512 256c0 141.39-114.61 256-256 256s-256-114.61-256-256 114.61-256 256-256 256 114.61 256 256" fill="#45dee0"/>
  <path d="m281.62 222.08c-0.089844-0.125-0.16406-0.26562-0.22656-0.39062l-25.391-43.996-25.391 43.984c-0.0625 0.13672-0.13672 0.27734-0.22656 0.39062l-27.332 47.332c-0.51562 1.0703-1.625 1.8008-2.8828 1.8008l-81.113 0.011719v109.11h92.273l-0.011719-60.91c0-5.5039 4.4961-10 10-10h69.363c5.5039 0 10 4.4961 10 10v60.926h92.273v-109.12h-81.113c-1.2734 0-2.3672-0.74219-2.8828-1.8008zm18.555-65.723h-40.961v14.082l26.918 46.613h97.578c1.3711 0 2.543 0.86719 2.9961 2.0781l21.008 47.574c0.94531 2.1289-0.66797 4.4961-2.9336 4.4961h-5.4141v109.11h6.3594c1.5625 0 2.8594 1.1094 3.1484 2.582l4.1953 14.473c0.59375 2.0391-0.91797 4.1172-3.1758 4.082l-307.88 0.023437c-2.1406 0-3.6523-2.0547-3.0742-4.082l4.2695-14.738c0.40234-1.3984 1.6875-2.3047 3.0742-2.3047v-0.011718h6.3594l-0.011719-109.12h-5.4141c-2.2656 0-3.9688-2.3438-2.8594-4.6602l21.008-47.559c0.52734-1.1953 1.6992-1.9141 2.9336-1.9141v-0.011719h97.578l26.918-46.613v-56.754c0-4.2188 6.4102-4.2188 6.4102 0v6.7891h40.961c2.7852 0 4.4453 3.4492 2.0898 5.6445l-12.254 12.305 12.43 12.469c2.0039 2.0156 0.55469 5.4531-2.2656 5.4531zm-40.961-6.4102h33.25l-9.2305-9.2695c-1.2344-1.2461-1.2461-3.2617 0-4.5078l9.2305-9.2695h-33.25zm0.99609 108.73h12.734c4.2188 0 4.2188 6.4102 0 6.4102h-12.734c-3.0469 3.9922-9.4961 1.8516-9.4961-3.2109 0-1.75 0.84375-3.2891 2.1523-4.2578l0.125-9.4453c0.050781-4.207 6.4375-4.1328 6.3867 0.074219l-0.125 9.4609c0.35156 0.28906 0.67969 0.61719 0.95703 0.96875zm-4.207-27.52c16.965 0 30.73 13.766 30.73 30.73s-13.754 30.73-30.73 30.73c-16.965 0-30.73-13.766-30.73-30.73s13.766-30.73 30.73-30.73zm17.191 13.539c9.4961 9.4961 9.4961 24.887 0 34.387-9.4961 9.4961-24.887 9.4961-34.387 0-9.4961-9.4961-9.4961-24.887 0-34.387 9.4961-9.4961 24.887-9.4961 34.387 0zm-104.8 92.754h13.148v21.84h-13.148zm-6.4102 21.852h-13.148v-21.84h13.148zm-16.359-28.262h39.121c1.7773 0 3.2109 1.4375 3.2109 3.2109v28.25c0 1.7773-1.4375 3.2109-3.2109 3.2109h-39.121c-1.7773 0-3.2109-1.4375-3.2109-3.2109v-28.25c0.011719-1.7773 1.4375-3.2109 3.2109-3.2109zm19.547-49.66h19.574c1.7773 0 3.2109 1.4375 3.2109 3.2109v28.25c0 1.7773-1.4375 3.2109-3.2109 3.2109h-39.121c-1.7773 0-3.2109-1.4375-3.2109-3.2109v-28.25c0-1.7773 1.4375-3.2109 3.2109-3.2109zm3.2227 6.4219h13.148v21.84h-13.148zm-6.4102 21.84h-13.148v-21.84h13.148zm188.05 27.809h13.148v21.84h-13.148zm-6.4102 21.852h-13.148v-21.84h13.148zm-16.359-28.262h39.121c1.7773 0 3.2109 1.4375 3.2109 3.2109v28.25c0 1.7773-1.4375 3.2109-3.2109 3.2109h-39.121c-1.7773 0-3.2109-1.4375-3.2109-3.2109v-28.25c0.011719-1.7773 1.4492-3.2109 3.2109-3.2109zm19.547-49.66h19.574c1.7773 0 3.2109 1.4375 3.2109 3.2109v28.25c0 1.7773-1.4375 3.2109-3.2109 3.2109h-39.121c-1.7773 0-3.2109-1.4375-3.2109-3.2109v-28.25c0-1.7773 1.4375-3.2109 3.2109-3.2109zm3.2227 6.4219h13.148v21.84h-13.148zm-6.4102 21.84h-13.148v-21.84h13.148zm-84.402 21.891h35.051v48.793h-35.051zm-6.4219 48.793h-35.051v-48.793h35.051zm-35.051-55.219v-5.6914c0-1.9648 1.625-3.5898 3.5898-3.5898h69.363c1.9648 0 3.5898 1.625 3.5898 3.5898v5.707c-25.52-0.011719-51.035-0.011719-76.539-0.011719zm185.59 61.641h-294.65l-2.4062 8.3242h299.48zm-89.652-121.95-23.855-41.312h91.793l18.25 41.312zm-115.35 0h-86.188l18.25-41.312h91.793z" fill-rule="evenodd"/>
 </g>
</svg>
