<?xml version="1.0" encoding="UTF-8"?>
<svg width="100pt" height="100pt" version="1.1" viewBox="0 0 100 100" xmlns="http://www.w3.org/2000/svg">
 <g>
  <path d="m100 50c0 27.613-22.387 50-50 50s-50-22.387-50-50 22.387-50 50-50 50 22.387 50 50" fill="#a5cee3"/>
  <path d="m55.004 43.375c-0.015625-0.023438-0.03125-0.050781-0.042968-0.078125l-4.9609-8.5938-4.9609 8.5898c-0.011718 0.027343-0.027343 0.054687-0.042968 0.078125l-5.3398 9.2461c-0.10156 0.21094-0.31641 0.35156-0.5625 0.35156l-15.844 0.003906v21.312h18.023l-0.003907-11.898c0-1.0742 0.87891-1.9531 1.9531-1.9531h13.547c1.0742 0 1.9531 0.87891 1.9531 1.9531v11.898h18.023v-21.312h-15.844c-0.25 0-0.46094-0.14453-0.5625-0.35156zm3.625-12.836h-8v2.75l5.2578 9.1055h19.059c0.26953 0 0.49609 0.16797 0.58594 0.40625l4.1016 9.293c0.18359 0.41406-0.12891 0.87891-0.57422 0.87891h-1.0586v21.312h1.2422c0.30469 0 0.55859 0.21484 0.61328 0.50391l0.82031 2.8281c0.11719 0.39844-0.17969 0.80469-0.62109 0.79687l-60.133 0.003907c-0.41797 0-0.71484-0.40234-0.60156-0.79688l0.83203-2.8789c0.078125-0.27344 0.32812-0.44922 0.60156-0.44922v-0.003907h1.2422l-0.003906-21.312h-1.0586c-0.44141 0-0.77344-0.45703-0.55859-0.91016l4.1016-9.2891c0.10156-0.23438 0.33203-0.375 0.57422-0.375v-0.003906h19.059l5.2578-9.1055v-11.086c0-0.82422 1.2539-0.82422 1.2539 0v1.3242h8c0.54297 0 0.86719 0.67578 0.41016 1.1016l-2.3945 2.4023 2.4297 2.4336c0.39062 0.39453 0.10938 1.0664-0.44141 1.0664zm-8-1.2539h6.4922l-1.8047-1.8125c-0.24219-0.24219-0.24219-0.63672 0-0.87891l1.8047-1.8125h-6.4922zm0.19531 21.238h2.4883c0.82422 0 0.82422 1.2539 0 1.2539h-2.4883c-0.59375 0.78125-1.8555 0.36328-1.8555-0.62891 0-0.34375 0.16406-0.64063 0.42188-0.83203l0.023437-1.8438c0.011719-0.82031 1.2578-0.80859 1.2461 0.015625l-0.023437 1.8477c0.070312 0.054687 0.13281 0.12109 0.1875 0.1875zm-0.82031-5.375c3.3125 0 6.0039 2.6875 6.0039 6.0039 0 3.3125-2.6875 6.0039-6.0039 6.0039-3.3125 0-6.0039-2.6875-6.0039-6.0039 0-3.3125 2.6875-6.0039 6.0039-6.0039zm3.3594 2.6445c1.8555 1.8555 1.8555 4.8594 0 6.7148-1.8555 1.8555-4.8594 1.8555-6.7148 0-1.8555-1.8555-1.8555-4.8594 0-6.7148 1.8555-1.8555 4.8594-1.8555 6.7148 0zm-20.469 18.117h2.5664v4.2656h-2.5664zm-1.2539 4.2695h-2.5664v-4.2656h2.5664zm-3.1953-5.5195h7.6406c0.34766 0 0.62891 0.28125 0.62891 0.62891v5.5195c0 0.34766-0.28125 0.62891-0.62891 0.62891h-7.6406c-0.34766 0-0.62891-0.28125-0.62891-0.62891v-5.5195c0.003906-0.34766 0.28125-0.62891 0.62891-0.62891zm3.8164-9.6992h3.8242c0.34766 0 0.62891 0.28125 0.62891 0.62891v5.5195c0 0.34766-0.28125 0.62891-0.62891 0.62891h-7.6406c-0.34766 0-0.62891-0.28125-0.62891-0.62891v-5.5195c0-0.34766 0.28125-0.62891 0.62891-0.62891zm0.62891 1.2539h2.5664v4.2656h-2.5664zm-1.2539 4.2656h-2.5664v-4.2656h2.5664zm36.727 5.4336h2.5664v4.2656h-2.5664zm-1.2539 4.2695h-2.5664v-4.2656h2.5664zm-3.1953-5.5195h7.6406c0.34766 0 0.62891 0.28125 0.62891 0.62891v5.5195c0 0.34766-0.28125 0.62891-0.62891 0.62891h-7.6406c-0.34766 0-0.62891-0.28125-0.62891-0.62891v-5.5195c0.003906-0.34766 0.28125-0.62891 0.62891-0.62891zm3.8164-9.6992h3.8242c0.34766 0 0.62891 0.28125 0.62891 0.62891v5.5195c0 0.34766-0.28125 0.62891-0.62891 0.62891h-7.6406c-0.34766 0-0.62891-0.28125-0.62891-0.62891v-5.5195c0-0.34766 0.28125-0.62891 0.62891-0.62891zm0.62891 1.2539h2.5664v4.2656h-2.5664zm-1.2539 4.2656h-2.5664v-4.2656h2.5664zm-16.484 4.2773h6.8477v9.5312h-6.8477zm-1.2539 9.5312h-6.8477v-9.5312h6.8477zm-6.8477-10.785v-1.1133c0-0.38281 0.31641-0.69922 0.69922-0.69922h13.547c0.38281 0 0.69922 0.31641 0.69922 0.69922v1.1133c-4.9844-0.003906-9.9688-0.003906-14.949-0.003906zm36.25 12.039h-57.551l-0.46875 1.625h58.492zm-17.512-23.816-4.6602-8.0703h17.93l3.5664 8.0703zm-22.527 0h-16.832l3.5664-8.0703h17.93z" fill-rule="evenodd"/>
 </g>
</svg>
